<svg width="142" height="34" viewBox="0 0 142 34" fill="none" xmlns="http://www.w3.org/2000/svg">
<path d="M33.2594 19.9915C32.9167 19.5059 32.5029 19.0285 32.0417 18.5677C31.9093 18.4325 31.7825 18.3084 31.6627 18.2007C30.3794 17.0046 28.8161 15.9381 27.4395 15.1614L27.4172 15.1517C23.3195 13.0202 17.2571 15.2097 12.8863 15.2442C12.5352 15.2497 12.2105 15.1283 11.9681 14.8758C10.0244 12.7939 9.90878 8.30047 10.6946 5.60328C10.8103 5.0666 10.8688 4.50371 10.8409 3.96427C10.8075 2.66603 10.1066 1.52369 8.82199 1.19672C7.49137 0.752475 6.06879 1.10014 4.95134 1.84377C4.88586 1.8755 4.82176 1.90723 4.76046 1.94034C4.44975 2.10728 4.20731 2.35009 4.01643 2.6343C3.20133 3.50485 2.74572 4.6058 2.95472 5.63639C2.94078 5.63777 2.92685 5.63915 2.91431 5.64053C2.38624 5.70813 1.97939 5.8392 1.61574 6.23791V6.23929C-0.390646 8.66469 2.90734 9.687 5.75529 9.66631C5.78037 10.0374 5.77619 10.421 5.7943 10.7755C5.9824 14.6427 6.10083 18.8492 7.7979 22.4335C7.96788 22.8377 8.12672 23.2406 8.25351 23.6544C8.26884 24.0035 8.32457 24.3705 8.36776 24.7057C8.6102 26.4054 8.97804 29.0102 9.22048 30.6782C9.34727 31.5929 9.60085 32.6042 10.2752 32.8359C10.9566 33.0539 11.897 33.1353 12.5017 32.5172C12.9518 31.9585 13.0396 31.139 13.1733 30.267C13.2932 29.4268 13.4227 28.519 13.5509 27.6209C13.7543 27.4802 14.0163 27.3188 14.6461 27.5188C16.6789 28.1686 18.8692 28.6405 21.0735 28.5439C21.4636 28.5315 21.8412 28.5232 22.2327 28.468C23.123 28.3838 24.331 27.7865 25.1517 28.2762C25.2562 28.3397 25.3286 28.4459 25.3872 28.5646C25.5711 29.5317 25.7689 30.5678 25.918 31.3307C26.0406 31.9888 26.2845 32.7173 26.9365 32.8842C27.5956 33.0415 28.5026 33.0994 29.0864 32.6552C29.5212 32.2523 29.6061 31.6632 29.7357 31.0355C29.9294 30.0215 30.1495 28.8709 30.346 27.8416C30.3753 27.6678 30.4059 27.505 30.4366 27.3533C30.9925 26.8814 32.5656 26.1254 35.9235 29.1413C42.3536 34.9178 37.0075 24.7968 33.2636 19.9957L33.2594 19.9915Z" fill="#A9D3A2"/>
<path d="M48.8928 27.6667V13.1387H53.7471C55.1629 13.1387 56.427 13.4302 57.5395 14.0133C58.6519 14.5964 59.526 15.4356 60.1617 16.5307C60.7973 17.6116 61.1152 18.9129 61.1152 20.4347C61.1152 21.9849 60.7901 23.3004 60.14 24.3813C59.5043 25.448 58.6302 26.2658 57.5178 26.8347C56.4054 27.3893 55.1412 27.6667 53.7254 27.6667H48.8928ZM51.0599 26.1307L50.4097 25.6613H53.617C54.585 25.6613 55.4591 25.4764 56.2392 25.1067C57.0338 24.7227 57.6695 24.1467 58.1463 23.3787C58.623 22.6107 58.8614 21.6293 58.8614 20.4347C58.8614 19.2827 58.623 18.3156 58.1463 17.5333C57.6839 16.7369 57.0555 16.1396 56.2609 15.7413C55.4807 15.3431 54.6067 15.144 53.6387 15.144H50.258L51.0599 14.376V26.1307Z" fill="#A9D3A2"/>
<path d="M65.3564 27.6667H63.1893V17.256H65.3564V27.6667ZM62.8643 14.056C62.8643 13.6436 62.9871 13.3093 63.2327 13.0533C63.4927 12.7831 63.8394 12.648 64.2729 12.648C64.6918 12.648 65.0314 12.7831 65.2914 13.0533C65.5515 13.3093 65.6815 13.6436 65.6815 14.056C65.6815 14.4542 65.5515 14.7884 65.2914 15.0587C65.0314 15.3147 64.6918 15.4427 64.2729 15.4427C63.8394 15.4427 63.4927 15.3147 63.2327 15.0587C62.9871 14.7884 62.8643 14.4542 62.8643 14.056Z" fill="#A9D3A2"/>
<path d="M74.229 17.0427C74.9802 17.0427 75.5726 17.1707 76.006 17.4267C76.4394 17.6684 76.7572 18.0027 76.9595 18.4293C77.1618 18.8418 77.2918 19.3111 77.3496 19.8373C77.4074 20.3636 77.4363 20.904 77.4363 21.4587V27.6667H75.2692V21.0107C75.2692 20.2711 75.0958 19.7733 74.7491 19.5173C74.4168 19.2613 74.0195 19.1333 73.5572 19.1333C73.0949 19.1333 72.6253 19.2258 72.1486 19.4107C71.6718 19.5956 71.2456 19.8444 70.87 20.1573C70.4943 20.4702 70.2054 20.8187 70.0031 21.2027V20.008H70.3499V27.6667H68.1828V17.256H69.8298L70.2849 19.0907L69.7431 19.1547C70.1476 18.6996 70.5882 18.3156 71.065 18.0027C71.5418 17.6898 72.0474 17.4551 72.582 17.2987C73.1165 17.128 73.6655 17.0427 74.229 17.0427Z" fill="#A9D3A2"/>
<path d="M84.7805 27.88C83.7114 27.88 82.7651 27.6596 81.9416 27.2187C81.1326 26.7636 80.5041 26.1307 80.0562 25.32C79.6084 24.5093 79.3845 23.5636 79.3845 22.4827C79.3845 21.3876 79.6084 20.4347 80.0562 19.624C80.5041 18.8133 81.1326 18.1804 81.9416 17.7253C82.7651 17.2702 83.7114 17.0427 84.7805 17.0427C85.8641 17.0427 86.8103 17.2702 87.6194 17.7253C88.4285 18.1804 89.0569 18.8133 89.5048 19.624C89.9671 20.4347 90.1982 21.3876 90.1982 22.4827C90.1982 23.5636 89.9671 24.5093 89.5048 25.32C89.0569 26.1307 88.4285 26.7636 87.6194 27.2187C86.8103 27.6596 85.8641 27.88 84.7805 27.88ZM84.7805 25.832C85.7485 25.832 86.5214 25.5262 87.0993 24.9147C87.6916 24.2889 87.9878 23.4782 87.9878 22.4827C87.9878 21.4729 87.6916 20.6551 87.0993 20.0293C86.5214 19.4036 85.7485 19.0907 84.7805 19.0907C83.827 19.0907 83.0541 19.4036 82.4617 20.0293C81.8838 20.6409 81.5949 21.4516 81.5949 22.4613C81.5949 23.4711 81.8838 24.2889 82.4617 24.9147C83.0541 25.5262 83.827 25.832 84.7805 25.832Z" fill="#A9D3A2"/>
<path d="M98.6457 27.88C97.1576 27.88 95.8501 27.56 94.7232 26.92C93.6108 26.2658 92.744 25.3769 92.1227 24.2533C91.5015 23.1156 91.1909 21.8356 91.1909 20.4133C91.1909 19.3324 91.3787 18.3369 91.7543 17.4267C92.13 16.5164 92.65 15.7271 93.3146 15.0587C93.9936 14.3902 94.781 13.8711 95.6768 13.5013C96.5869 13.1316 97.5766 12.9467 98.6457 12.9467C100.322 12.9467 101.694 13.288 102.763 13.9707C103.832 14.6391 104.706 15.5422 105.385 16.68L103.262 17.2987C102.597 16.4027 101.882 15.7982 101.116 15.4853C100.365 15.1582 99.5414 14.9947 98.6457 14.9947C97.6488 14.9947 96.7531 15.2293 95.9585 15.6987C95.1783 16.168 94.5571 16.808 94.0948 17.6187C93.6325 18.4293 93.4013 19.3609 93.4013 20.4133C93.4013 21.4516 93.6325 22.3831 94.0948 23.208C94.5571 24.0187 95.1783 24.6587 95.9585 25.128C96.7531 25.5973 97.6488 25.832 98.6457 25.832C99.5414 25.832 100.365 25.6756 101.116 25.3627C101.882 25.0356 102.597 24.424 103.262 23.528L105.385 24.1467C104.706 25.2844 103.832 26.1947 102.763 26.8773C101.694 27.5458 100.322 27.88 98.6457 27.88Z" fill="#A9D3A2"/>
<path d="M111.869 27.88C110.8 27.88 109.854 27.6596 109.03 27.2187C108.221 26.7636 107.593 26.1307 107.145 25.32C106.697 24.5093 106.473 23.5636 106.473 22.4827C106.473 21.3876 106.697 20.4347 107.145 19.624C107.593 18.8133 108.221 18.1804 109.03 17.7253C109.854 17.2702 110.8 17.0427 111.869 17.0427C112.953 17.0427 113.899 17.2702 114.708 17.7253C115.517 18.1804 116.146 18.8133 116.593 19.624C117.056 20.4347 117.287 21.3876 117.287 22.4827C117.287 23.5636 117.056 24.5093 116.593 25.32C116.146 26.1307 115.517 26.7636 114.708 27.2187C113.899 27.6596 112.953 27.88 111.869 27.88ZM111.869 25.832C112.837 25.832 113.61 25.5262 114.188 24.9147C114.78 24.2889 115.076 23.4782 115.076 22.4827C115.076 21.4729 114.78 20.6551 114.188 20.0293C113.61 19.4036 112.837 19.0907 111.869 19.0907C110.916 19.0907 110.143 19.4036 109.55 20.0293C108.973 20.6409 108.684 21.4516 108.684 22.4613C108.684 23.4711 108.973 24.2889 109.55 24.9147C110.143 25.5262 110.916 25.832 111.869 25.832Z" fill="#A9D3A2"/>
<path d="M123.242 27.88C122.274 27.88 121.422 27.6524 120.685 27.1973C119.948 26.7422 119.378 26.1093 118.973 25.2987C118.568 24.4738 118.366 23.5209 118.366 22.44C118.366 21.3591 118.568 20.4133 118.973 19.6027C119.378 18.792 119.948 18.1662 120.685 17.7253C121.422 17.2702 122.274 17.0427 123.242 17.0427C124.196 17.0427 125.026 17.2702 125.734 17.7253C126.442 18.1662 126.991 18.792 127.381 19.6027C127.786 20.4133 127.988 21.3591 127.988 22.44C127.988 23.5209 127.786 24.4738 127.381 25.2987C126.991 26.1093 126.442 26.7422 125.734 27.1973C125.026 27.6524 124.196 27.88 123.242 27.88ZM123.567 26.0453C124.463 26.0453 125.178 25.7182 125.713 25.064C126.262 24.4098 126.536 23.5422 126.536 22.4613C126.536 21.3804 126.262 20.5129 125.713 19.8587C125.178 19.2044 124.463 18.8773 123.567 18.8773C122.672 18.8773 121.949 19.2044 121.4 19.8587C120.851 20.5129 120.577 21.3733 120.577 22.44C120.577 23.5209 120.851 24.3956 121.4 25.064C121.949 25.7182 122.672 26.0453 123.567 26.0453ZM126.948 27.6667L126.428 25.576H126.645V19.6453H126.428V13.1387H128.595V27.6667H126.948Z" fill="#A9D3A2"/>
<path d="M135.799 27.88C134.773 27.88 133.87 27.6596 133.09 27.2187C132.31 26.7636 131.703 26.1307 131.27 25.32C130.836 24.5093 130.62 23.5636 130.62 22.4827C130.62 21.3876 130.836 20.4347 131.27 19.624C131.703 18.8133 132.31 18.1804 133.09 17.7253C133.87 17.2702 134.773 17.0427 135.799 17.0427C136.839 17.0427 137.749 17.2702 138.53 17.7253C139.31 18.1804 139.916 18.8133 140.35 19.624C140.783 20.4347 141 21.3876 141 22.4827C141 22.5822 140.993 22.6889 140.978 22.8027C140.978 22.9022 140.971 22.9947 140.957 23.08H132.678V21.2453H139.396L138.79 22.4827C138.79 21.4018 138.544 20.5129 138.053 19.816C137.562 19.1191 136.81 18.7707 135.799 18.7707C134.903 18.7707 134.188 19.0551 133.654 19.624C133.119 20.1787 132.852 20.9111 132.852 21.8213V22.9307C132.852 23.8836 133.112 24.6444 133.632 25.2133C134.152 25.768 134.874 26.0453 135.799 26.0453C136.651 26.0453 137.309 25.8676 137.771 25.512C138.233 25.1564 138.638 24.7156 138.985 24.1893L140.61 25.192C140.119 26.088 139.483 26.7636 138.703 27.2187C137.937 27.6596 136.969 27.88 135.799 27.88Z" fill="#A9D3A2"/>
<path d="M42.9874 9V33M33.2594 19.9915C32.9167 19.5059 32.5029 19.0285 32.0417 18.5677C31.9093 18.4325 31.7825 18.3084 31.6627 18.2007C30.3794 17.0046 28.8161 15.9381 27.4395 15.1614L27.4172 15.1517C23.3195 13.0202 17.2571 15.2097 12.8863 15.2442C12.5352 15.2497 12.2105 15.1283 11.9681 14.8758C10.0244 12.7939 9.90878 8.30047 10.6946 5.60328C10.8103 5.0666 10.8688 4.50371 10.8409 3.96427C10.8075 2.66603 10.1066 1.52369 8.82199 1.19672C7.49137 0.752475 6.06879 1.10014 4.95134 1.84377C4.88586 1.8755 4.82176 1.90723 4.76046 1.94034C4.44975 2.10728 4.20731 2.35009 4.01643 2.6343C3.20133 3.50485 2.74572 4.6058 2.95472 5.63639C2.94078 5.63777 2.92685 5.63915 2.91431 5.64053C2.38624 5.70813 1.97939 5.8392 1.61574 6.23791V6.23929C-0.390646 8.66469 2.90734 9.687 5.75529 9.66631C5.78037 10.0374 5.77619 10.421 5.7943 10.7755C5.9824 14.6427 6.10083 18.8492 7.7979 22.4335C7.96788 22.8377 8.12672 23.2406 8.25351 23.6544C8.26884 24.0035 8.32457 24.3705 8.36776 24.7057C8.6102 26.4054 8.97804 29.0102 9.22048 30.6782C9.34727 31.5929 9.60085 32.6042 10.2752 32.8359C10.9566 33.0539 11.897 33.1353 12.5017 32.5172C12.9518 31.9585 13.0396 31.139 13.1733 30.267C13.2932 29.4268 13.4227 28.519 13.5509 27.6209C13.7543 27.4802 14.0163 27.3188 14.6461 27.5188C16.6789 28.1686 18.8692 28.6405 21.0735 28.5439C21.4636 28.5315 21.8412 28.5232 22.2327 28.468C23.123 28.3838 24.331 27.7865 25.1517 28.2762C25.2562 28.3397 25.3286 28.4459 25.3872 28.5646C25.5711 29.5317 25.7689 30.5678 25.918 31.3307C26.0406 31.9888 26.2845 32.7173 26.9365 32.8842C27.5956 33.0415 28.5026 33.0994 29.0864 32.6552C29.5212 32.2523 29.6061 31.6632 29.7357 31.0355C29.9294 30.0215 30.1495 28.8709 30.346 27.8416C30.3753 27.6678 30.4059 27.505 30.4366 27.3533C30.9925 26.8814 32.5656 26.1254 35.9235 29.1413C42.3536 34.9178 37.0075 24.7968 33.2636 19.9957L33.2594 19.9915ZM48.8928 27.6667V13.1387H53.7471C55.1629 13.1387 56.427 13.4302 57.5395 14.0133C58.6519 14.5964 59.526 15.4356 60.1617 16.5307C60.7973 17.6116 61.1152 18.9129 61.1152 20.4347C61.1152 21.9849 60.7901 23.3004 60.14 24.3813C59.5043 25.448 58.6302 26.2658 57.5178 26.8347C56.4054 27.3893 55.1412 27.6667 53.7254 27.6667H48.8928ZM51.0599 26.1307L50.4097 25.6613H53.617C54.585 25.6613 55.4591 25.4764 56.2392 25.1067C57.0338 24.7227 57.6695 24.1467 58.1463 23.3787C58.623 22.6107 58.8614 21.6293 58.8614 20.4347C58.8614 19.2827 58.623 18.3156 58.1463 17.5333C57.6839 16.7369 57.0555 16.1396 56.2609 15.7413C55.4807 15.3431 54.6067 15.144 53.6387 15.144H50.258L51.0599 14.376V26.1307ZM65.3564 27.6667H63.1893V17.256H65.3564V27.6667ZM62.8643 14.056C62.8643 13.6436 62.9871 13.3093 63.2327 13.0533C63.4927 12.7831 63.8394 12.648 64.2729 12.648C64.6918 12.648 65.0314 12.7831 65.2914 13.0533C65.5515 13.3093 65.6815 13.6436 65.6815 14.056C65.6815 14.4542 65.5515 14.7884 65.2914 15.0587C65.0314 15.3147 64.6918 15.4427 64.2729 15.4427C63.8394 15.4427 63.4927 15.3147 63.2327 15.0587C62.9871 14.7884 62.8643 14.4542 62.8643 14.056ZM74.229 17.0427C74.9802 17.0427 75.5726 17.1707 76.006 17.4267C76.4394 17.6684 76.7572 18.0027 76.9595 18.4293C77.1618 18.8418 77.2918 19.3111 77.3496 19.8373C77.4074 20.3636 77.4363 20.904 77.4363 21.4587V27.6667H75.2692V21.0107C75.2692 20.2711 75.0958 19.7733 74.7491 19.5173C74.4168 19.2613 74.0195 19.1333 73.5572 19.1333C73.0949 19.1333 72.6253 19.2258 72.1486 19.4107C71.6718 19.5956 71.2456 19.8444 70.87 20.1573C70.4943 20.4702 70.2054 20.8187 70.0031 21.2027V20.008H70.3499V27.6667H68.1828V17.256H69.8298L70.2849 19.0907L69.7431 19.1547C70.1476 18.6996 70.5882 18.3156 71.065 18.0027C71.5418 17.6898 72.0474 17.4551 72.582 17.2987C73.1165 17.128 73.6655 17.0427 74.229 17.0427ZM84.7805 27.88C83.7114 27.88 82.7651 27.6596 81.9416 27.2187C81.1326 26.7636 80.5041 26.1307 80.0562 25.32C79.6084 24.5093 79.3845 23.5636 79.3845 22.4827C79.3845 21.3876 79.6084 20.4347 80.0562 19.624C80.5041 18.8133 81.1326 18.1804 81.9416 17.7253C82.7651 17.2702 83.7114 17.0427 84.7805 17.0427C85.8641 17.0427 86.8104 17.2702 87.6194 17.7253C88.4284 18.1804 89.0569 18.8133 89.5048 19.624C89.9671 20.4347 90.1982 21.3876 90.1982 22.4827C90.1982 23.5636 89.9671 24.5093 89.5048 25.32C89.0569 26.1307 88.4284 26.7636 87.6194 27.2187C86.8104 27.6596 85.8641 27.88 84.7805 27.88ZM84.7805 25.832C85.7485 25.832 86.5214 25.5262 87.0993 24.9147C87.6916 24.2889 87.9878 23.4782 87.9878 22.4827C87.9878 21.4729 87.6916 20.6551 87.0993 20.0293C86.5214 19.4036 85.7485 19.0907 84.7805 19.0907C83.827 19.0907 83.0541 19.4036 82.4617 20.0293C81.8838 20.6409 81.5949 21.4516 81.5949 22.4613C81.5949 23.4711 81.8838 24.2889 82.4617 24.9147C83.0541 25.5262 83.827 25.832 84.7805 25.832ZM98.6457 27.88C97.1576 27.88 95.8501 27.56 94.7232 26.92C93.6108 26.2658 92.744 25.3769 92.1227 24.2533C91.5015 23.1156 91.1909 21.8356 91.1909 20.4133C91.1909 19.3324 91.3787 18.3369 91.7543 17.4267C92.13 16.5164 92.65 15.7271 93.3146 15.0587C93.9936 14.3902 94.781 13.8711 95.6768 13.5013C96.5869 13.1316 97.5766 12.9467 98.6457 12.9467C100.322 12.9467 101.694 13.288 102.763 13.9707C103.832 14.6391 104.706 15.5422 105.385 16.68L103.262 17.2987C102.597 16.4027 101.882 15.7982 101.116 15.4853C100.365 15.1582 99.5414 14.9947 98.6457 14.9947C97.6488 14.9947 96.7531 15.2293 95.9585 15.6987C95.1783 16.168 94.5571 16.808 94.0948 17.6187C93.6325 18.4293 93.4013 19.3609 93.4013 20.4133C93.4013 21.4516 93.6325 22.3831 94.0948 23.208C94.5571 24.0187 95.1783 24.6587 95.9585 25.128C96.7531 25.5973 97.6488 25.832 98.6457 25.832C99.5414 25.832 100.365 25.6756 101.116 25.3627C101.882 25.0356 102.597 24.424 103.262 23.528L105.385 24.1467C104.706 25.2844 103.832 26.1947 102.763 26.8773C101.694 27.5458 100.322 27.88 98.6457 27.88ZM111.869 27.88C110.8 27.88 109.854 27.6596 109.03 27.2187C108.221 26.7636 107.593 26.1307 107.145 25.32C106.697 24.5093 106.473 23.5636 106.473 22.4827C106.473 21.3876 106.697 20.4347 107.145 19.624C107.593 18.8133 108.221 18.1804 109.03 17.7253C109.854 17.2702 110.8 17.0427 111.869 17.0427C112.953 17.0427 113.899 17.2702 114.708 17.7253C115.517 18.1804 116.146 18.8133 116.593 19.624C117.056 20.4347 117.287 21.3876 117.287 22.4827C117.287 23.5636 117.056 24.5093 116.593 25.32C116.146 26.1307 115.517 26.7636 114.708 27.2187C113.899 27.6596 112.953 27.88 111.869 27.88ZM111.869 25.832C112.837 25.832 113.61 25.5262 114.188 24.9147C114.78 24.2889 115.076 23.4782 115.076 22.4827C115.076 21.4729 114.78 20.6551 114.188 20.0293C113.61 19.4036 112.837 19.0907 111.869 19.0907C110.916 19.0907 110.143 19.4036 109.55 20.0293C108.973 20.6409 108.684 21.4516 108.684 22.4613C108.684 23.4711 108.973 24.2889 109.55 24.9147C110.143 25.5262 110.916 25.832 111.869 25.832ZM123.242 27.88C122.274 27.88 121.422 27.6524 120.685 27.1973C119.948 26.7422 119.378 26.1093 118.973 25.2987C118.568 24.4738 118.366 23.5209 118.366 22.44C118.366 21.3591 118.568 20.4133 118.973 19.6027C119.378 18.792 119.948 18.1662 120.685 17.7253C121.422 17.2702 122.274 17.0427 123.242 17.0427C124.196 17.0427 125.026 17.2702 125.734 17.7253C126.442 18.1662 126.991 18.792 127.381 19.6027C127.786 20.4133 127.988 21.3591 127.988 22.44C127.988 23.5209 127.786 24.4738 127.381 25.2987C126.991 26.1093 126.442 26.7422 125.734 27.1973C125.026 27.6524 124.196 27.88 123.242 27.88ZM123.567 26.0453C124.463 26.0453 125.178 25.7182 125.713 25.064C126.262 24.4098 126.536 23.5422 126.536 22.4613C126.536 21.3804 126.262 20.5129 125.713 19.8587C125.178 19.2044 124.463 18.8773 123.567 18.8773C122.672 18.8773 121.949 19.2044 121.4 19.8587C120.851 20.5129 120.577 21.3733 120.577 22.44C120.577 23.5209 120.851 24.3956 121.4 25.064C121.949 25.7182 122.672 26.0453 123.567 26.0453ZM126.948 27.6667L126.428 25.576H126.645V19.6453H126.428V13.1387H128.595V27.6667H126.948ZM135.799 27.88C134.773 27.88 133.87 27.6596 133.09 27.2187C132.31 26.7636 131.703 26.1307 131.27 25.32C130.836 24.5093 130.62 23.5636 130.62 22.4827C130.62 21.3876 130.836 20.4347 131.27 19.624C131.703 18.8133 132.31 18.1804 133.09 17.7253C133.87 17.2702 134.773 17.0427 135.799 17.0427C136.839 17.0427 137.749 17.2702 138.53 17.7253C139.31 18.1804 139.916 18.8133 140.35 19.624C140.783 20.4347 141 21.3876 141 22.4827C141 22.5822 140.993 22.6889 140.978 22.8027C140.978 22.9022 140.971 22.9947 140.957 23.08H132.678V21.2453H139.396L138.79 22.4827C138.79 21.4018 138.544 20.5129 138.053 19.816C137.562 19.1191 136.81 18.7707 135.799 18.7707C134.903 18.7707 134.188 19.0551 133.654 19.624C133.119 20.1787 132.852 20.9111 132.852 21.8213V22.9307C132.852 23.8836 133.112 24.6444 133.632 25.2133C134.152 25.768 134.874 26.0453 135.799 26.0453C136.651 26.0453 137.309 25.8676 137.771 25.512C138.233 25.1564 138.638 24.7156 138.985 24.1893L140.61 25.192C140.119 26.088 139.483 26.7636 138.703 27.2187C137.937 27.6596 136.969 27.88 135.799 27.88Z" stroke="#A8D3A2" stroke-linecap="round"/>
</svg>
