<svg width="42" height="48" viewBox="0 0 42 48" fill="none" xmlns="http://www.w3.org/2000/svg">
<path d="M24.2759 46.9385C31.7221 45.4162 41.3499 39.9529 41.3499 25.8258C41.3499 12.9698 32.1232 4.40904 25.4886 0.475467C24.0164 -0.397407 22.293 0.750512 22.293 2.48727V6.92958C22.293 10.4326 20.849 16.8267 16.8363 19.4863C14.7877 20.8441 12.5752 18.8118 12.3262 16.3329L12.1218 14.2974C11.8841 11.931 9.52109 10.4945 7.66674 11.9373C4.33538 14.5292 0.853996 19.0679 0.853996 25.8258C0.853996 43.1023 13.4527 47.4215 19.752 47.4215C20.1184 47.4215 20.5035 47.4103 20.9045 47.3867C17.7939 47.1156 12.7645 45.1472 12.7645 38.7824C12.7645 33.8036 16.326 30.4353 19.0319 28.7981C19.7596 28.3576 20.6115 28.9295 20.6115 29.7925V31.2239C20.6115 32.3194 21.0269 34.032 22.0157 35.2042C23.1348 36.5307 24.7773 35.141 24.9097 33.3964C24.9517 32.8461 25.4943 32.4953 25.9617 32.774C27.4893 33.6846 29.4393 35.6296 29.4393 38.7824C29.4393 43.758 26.7499 46.0469 24.2759 46.9385Z" fill="#FF8D00"/>
</svg>
