<svg width="37" height="37" viewBox="0 0 37 37" fill="none" xmlns="http://www.w3.org/2000/svg">
<path d="M24.9965 7.68058L27.1579 5.5207C27.731 4.94766 28.5082 4.62573 29.3186 4.62573C30.129 4.62573 30.9062 4.94766 31.4792 5.5207C32.0522 6.09374 32.3742 6.87095 32.3742 7.68135C32.3742 8.49175 32.0522 9.26895 31.4792 9.84199L29.3193 12.0034M24.9965 7.68058L16.9274 15.7497C15.3164 17.3622 14.5101 18.167 13.9613 19.149C13.4124 20.1311 12.8605 22.4482 12.3333 24.6667C14.5502 24.1394 16.8688 23.5875 17.8509 23.0387C18.8329 22.4898 19.6392 21.6835 21.2503 20.0725L29.3193 12.0034M24.9965 7.68058L29.3193 12.0034" stroke="black" stroke-width="3" stroke-linecap="round" stroke-linejoin="round"/>
<path d="M32.375 18.5C32.375 25.0413 32.375 28.3112 30.3431 30.3431C28.3112 32.375 25.0398 32.375 18.5 32.375C11.9603 32.375 8.68883 32.375 6.65692 30.3431C4.625 28.3112 4.625 25.0398 4.625 18.5C4.625 11.9603 4.625 8.68883 6.65692 6.65692C8.68883 4.625 11.9603 4.625 18.5 4.625" stroke="black" stroke-width="3" stroke-linecap="round" stroke-linejoin="round"/>
</svg>
