<svg width="38" height="38" viewBox="0 0 38 38" fill="none" xmlns="http://www.w3.org/2000/svg">
<path d="M9.50004 21.0345C9.50004 18.422 10.5609 16.047 12.2867 14.3212L10.0384 12.0729C7.75837 14.3687 6.33337 17.5354 6.33337 21.0345C6.33337 27.4945 11.1625 32.8145 17.4167 33.5904V30.392C12.9359 29.632 9.50004 25.737 9.50004 21.0345ZM31.6667 21.0345C31.6667 14.0362 25.9984 8.36788 19 8.36788C18.905 8.36788 18.81 8.38371 18.715 8.38371L20.4409 6.65788L18.2084 4.40955L12.6667 9.95121L18.2084 15.4929L20.4409 13.2604L18.7309 11.5504C18.8259 11.5504 18.9209 11.5345 19 11.5345C24.2409 11.5345 28.5 15.7937 28.5 21.0345C28.5 25.737 25.0642 29.632 20.5834 30.392V33.5904C26.8375 32.8145 31.6667 27.4945 31.6667 21.0345Z" fill="white"/>
</svg>
