<svg width="384" height="91" viewBox="0 0 384 91" fill="none" xmlns="http://www.w3.org/2000/svg">
<g filter="url(#filter0_d_2158_5217)">
<rect x="16" y="10" width="352" height="59" rx="14" fill="white"/>
</g>
<path d="M48.0067 41.0067H46.9533L46.58 40.6467C47.8867 39.1267 48.6733 37.1533 48.6733 35.0067C48.6733 30.22 44.7933 26.34 40.0067 26.34C35.22 26.34 31.34 30.22 31.34 35.0067C31.34 39.7933 35.22 43.6733 40.0067 43.6733C42.1533 43.6733 44.1267 42.8867 45.6467 41.58L46.0067 41.9533V43.0067L52.6733 49.66L54.66 47.6733L48.0067 41.0067ZM40.0067 41.0067C36.6867 41.0067 34.0067 38.3267 34.0067 35.0067C34.0067 31.6867 36.6867 29.0067 40.0067 29.0067C43.3267 29.0067 46.0067 31.6867 46.0067 35.0067C46.0067 38.3267 43.3267 41.0067 40.0067 41.0067Z" fill="black"/>
<path d="M64.4347 47V32.4545H73.7528V34.6634H67.0696V38.6122H73.1136V40.821H67.0696V47H64.4347ZM76.0398 47V36.0909H78.6108V47H76.0398ZM77.3324 34.5426C76.9252 34.5426 76.5748 34.4077 76.2812 34.1378C75.9877 33.8632 75.8409 33.5341 75.8409 33.1506C75.8409 32.7623 75.9877 32.4332 76.2812 32.1634C76.5748 31.8887 76.9252 31.7514 77.3324 31.7514C77.7443 31.7514 78.0947 31.8887 78.3835 32.1634C78.6771 32.4332 78.8239 32.7623 78.8239 33.1506C78.8239 33.5341 78.6771 33.8632 78.3835 34.1378C78.0947 34.4077 77.7443 34.5426 77.3324 34.5426ZM83.8256 40.608V47H81.2546V36.0909H83.712V37.9446H83.8398C84.0908 37.3338 84.4909 36.8485 85.0401 36.4886C85.5941 36.1288 86.2783 35.9489 87.0927 35.9489C87.8455 35.9489 88.5013 36.1098 89.06 36.4318C89.6235 36.7538 90.0591 37.2202 90.3668 37.831C90.6793 38.4418 90.8332 39.1828 90.8285 40.054V47H88.2575V40.4517C88.2575 39.7225 88.0681 39.152 87.6893 38.7401C87.3152 38.3281 86.7968 38.1222 86.1339 38.1222C85.6841 38.1222 85.284 38.2216 84.9336 38.4205C84.5879 38.6146 84.3157 38.8963 84.1168 39.2656C83.9227 39.6349 83.8256 40.0824 83.8256 40.608ZM97.4904 47.1918C96.6334 47.1918 95.8664 46.9716 95.1893 46.5312C94.5122 46.0909 93.9772 45.4517 93.5842 44.6136C93.1912 43.7756 92.9947 42.7576 92.9947 41.5597C92.9947 40.3475 93.1935 39.3248 93.5913 38.4915C93.9937 37.6534 94.5359 37.0213 95.2177 36.5952C95.8995 36.1643 96.6594 35.9489 97.4975 35.9489C98.1367 35.9489 98.6623 36.0578 99.0742 36.2756C99.4862 36.4886 99.8129 36.7467 100.054 37.0497C100.296 37.348 100.483 37.6297 100.615 37.8949H100.722V32.4545H103.3V47H100.772V45.2812H100.615C100.483 45.5464 100.291 45.8281 100.04 46.1264C99.7892 46.42 99.4577 46.6709 99.0458 46.8793C98.6339 47.0876 98.1154 47.1918 97.4904 47.1918ZM98.2077 45.0824C98.7522 45.0824 99.2163 44.9356 99.5998 44.642C99.9833 44.3437 100.275 43.9295 100.473 43.3991C100.672 42.8688 100.772 42.2509 100.772 41.5455C100.772 40.84 100.672 40.2268 100.473 39.706C100.279 39.1851 99.9904 38.7803 99.6069 38.4915C99.2281 38.2027 98.7617 38.0582 98.2077 38.0582C97.6348 38.0582 97.1566 38.2074 96.7731 38.5057C96.3896 38.804 96.1007 39.2159 95.9066 39.7415C95.7125 40.267 95.6154 40.8684 95.6154 41.5455C95.6154 42.2273 95.7125 42.8357 95.9066 43.3707C96.1055 43.901 96.3967 44.3201 96.7802 44.6278C97.1684 44.9309 97.6443 45.0824 98.2077 45.0824ZM112.599 51.0909C112.248 51.0909 111.924 51.0625 111.626 51.0057C111.332 50.9536 111.098 50.892 110.923 50.821L111.519 48.8182C111.893 48.9271 112.227 48.9792 112.521 48.9744C112.814 48.9697 113.072 48.8774 113.295 48.6974C113.522 48.5223 113.714 48.2287 113.87 47.8168L114.09 47.2273L110.134 36.0909H112.862L115.376 44.3295H115.489L118.011 36.0909H120.745L116.377 48.321C116.174 48.8987 115.904 49.3935 115.567 49.8054C115.231 50.2221 114.819 50.5393 114.332 50.7571C113.849 50.9796 113.271 51.0909 112.599 51.0909ZM126.912 47.2131C125.846 47.2131 124.923 46.9787 124.142 46.5099C123.36 46.0412 122.754 45.3854 122.324 44.5426C121.897 43.6998 121.684 42.715 121.684 41.5881C121.684 40.4612 121.897 39.474 122.324 38.6264C122.754 37.7789 123.36 37.1207 124.142 36.652C124.923 36.1832 125.846 35.9489 126.912 35.9489C127.977 35.9489 128.9 36.1832 129.681 36.652C130.463 37.1207 131.066 37.7789 131.493 38.6264C131.923 39.474 132.139 40.4612 132.139 41.5881C132.139 42.715 131.923 43.6998 131.493 44.5426C131.066 45.3854 130.463 46.0412 129.681 46.5099C128.9 46.9787 127.977 47.2131 126.912 47.2131ZM126.926 45.1534C127.503 45.1534 127.986 44.9948 128.375 44.6776C128.763 44.3556 129.052 43.9247 129.241 43.3849C129.435 42.8452 129.532 42.2438 129.532 41.581C129.532 40.9134 129.435 40.3097 129.241 39.7699C129.052 39.2254 128.763 38.7921 128.375 38.4702C127.986 38.1482 127.503 37.9872 126.926 37.9872C126.334 37.9872 125.842 38.1482 125.449 38.4702C125.06 38.7921 124.769 39.2254 124.575 39.7699C124.386 40.3097 124.291 40.9134 124.291 41.581C124.291 42.2438 124.386 42.8452 124.575 43.3849C124.769 43.9247 125.06 44.3556 125.449 44.6776C125.842 44.9948 126.334 45.1534 126.926 45.1534ZM141.274 42.4119V36.0909H143.845V47H141.352V45.0611H141.239C140.992 45.6719 140.588 46.1714 140.024 46.5597C139.465 46.9479 138.777 47.142 137.957 47.142C137.242 47.142 136.61 46.9834 136.061 46.6662C135.517 46.3442 135.09 45.8778 134.783 45.267C134.475 44.6515 134.321 43.9081 134.321 43.0369V36.0909H136.892V42.6392C136.892 43.3305 137.081 43.8797 137.46 44.2869C137.839 44.6941 138.336 44.8977 138.952 44.8977C139.33 44.8977 139.697 44.8054 140.053 44.6207C140.408 44.4361 140.699 44.1615 140.926 43.7969C141.158 43.4276 141.274 42.9659 141.274 42.4119ZM146.489 47V36.0909H148.982V37.9091H149.096C149.294 37.2794 149.635 36.794 150.118 36.4531C150.606 36.1075 151.162 35.9347 151.787 35.9347C151.929 35.9347 152.088 35.9418 152.263 35.956C152.443 35.9654 152.592 35.982 152.711 36.0057V38.3707C152.602 38.3329 152.429 38.2997 152.192 38.2713C151.96 38.2382 151.735 38.2216 151.517 38.2216C151.049 38.2216 150.627 38.3234 150.253 38.527C149.884 38.7259 149.593 39.0028 149.38 39.358C149.167 39.7131 149.06 40.1226 149.06 40.5866V47H146.489ZM161.951 32.4545V47H159.38V32.4545H161.951ZM169.424 47.2131C168.33 47.2131 167.386 46.9858 166.59 46.5312C165.799 46.072 165.191 45.4233 164.765 44.5852C164.339 43.7424 164.126 42.7505 164.126 41.6094C164.126 40.4872 164.339 39.5024 164.765 38.6548C165.196 37.8026 165.797 37.1397 166.569 36.6662C167.341 36.188 168.247 35.9489 169.289 35.9489C169.961 35.9489 170.596 36.0578 171.192 36.2756C171.794 36.4886 172.324 36.8201 172.783 37.2699C173.247 37.7197 173.612 38.2926 173.877 38.9886C174.142 39.6799 174.275 40.5038 174.275 41.4602V42.2486H165.333V40.5156H171.81C171.806 40.0232 171.699 39.5852 171.491 39.2017C171.282 38.8134 170.991 38.508 170.617 38.2855C170.248 38.063 169.817 37.9517 169.325 37.9517C168.799 37.9517 168.337 38.0795 167.94 38.3352C167.542 38.5862 167.232 38.9176 167.009 39.3295C166.791 39.7367 166.68 40.1842 166.675 40.6719V42.1847C166.675 42.8191 166.791 43.3636 167.023 43.8182C167.255 44.268 167.58 44.6136 167.996 44.8551C168.413 45.0919 168.901 45.2102 169.46 45.2102C169.834 45.2102 170.172 45.1581 170.475 45.054C170.778 44.9451 171.041 44.7865 171.263 44.5781C171.486 44.3698 171.654 44.1117 171.768 43.804L174.168 44.0739C174.017 44.7083 173.728 45.2623 173.302 45.7358C172.88 46.2045 172.341 46.5691 171.683 46.8295C171.024 47.0852 170.272 47.2131 169.424 47.2131ZM185.072 38.9744L182.728 39.2301C182.662 38.9934 182.546 38.7708 182.38 38.5625C182.219 38.3542 182.002 38.1861 181.727 38.0582C181.452 37.9304 181.116 37.8665 180.718 37.8665C180.183 37.8665 179.734 37.9825 179.369 38.2145C179.009 38.4465 178.832 38.7472 178.836 39.1165C178.832 39.4337 178.948 39.6918 179.184 39.8906C179.426 40.0895 179.824 40.2528 180.377 40.3807L182.238 40.7784C183.27 41.0009 184.038 41.3537 184.539 41.8366C185.046 42.3196 185.302 42.9517 185.306 43.733C185.302 44.4195 185.1 45.0256 184.703 45.5511C184.31 46.072 183.763 46.4792 183.062 46.7727C182.361 47.0663 181.556 47.2131 180.647 47.2131C179.312 47.2131 178.237 46.9337 177.423 46.375C176.609 45.8116 176.123 45.0279 175.967 44.0241L178.474 43.7827C178.588 44.2751 178.829 44.6468 179.199 44.8977C179.568 45.1487 180.048 45.2741 180.64 45.2741C181.251 45.2741 181.741 45.1487 182.11 44.8977C182.484 44.6468 182.672 44.3366 182.672 43.9673C182.672 43.6548 182.551 43.3968 182.309 43.1932C182.073 42.9896 181.703 42.8333 181.201 42.7244L179.341 42.3338C178.294 42.116 177.52 41.7491 177.018 41.233C176.516 40.7121 176.268 40.054 176.272 39.2585C176.268 38.5862 176.45 38.0038 176.819 37.5114C177.193 37.0142 177.712 36.6307 178.375 36.3608C179.042 36.0862 179.812 35.9489 180.683 35.9489C181.961 35.9489 182.967 36.2211 183.701 36.7656C184.44 37.3101 184.897 38.0464 185.072 38.9744ZM196.049 38.9744L193.705 39.2301C193.639 38.9934 193.523 38.7708 193.357 38.5625C193.196 38.3542 192.978 38.1861 192.703 38.0582C192.429 37.9304 192.093 37.8665 191.695 37.8665C191.16 37.8665 190.71 37.9825 190.346 38.2145C189.986 38.4465 189.808 38.7472 189.813 39.1165C189.808 39.4337 189.924 39.6918 190.161 39.8906C190.402 40.0895 190.8 40.2528 191.354 40.3807L193.215 40.7784C194.247 41.0009 195.014 41.3537 195.516 41.8366C196.023 42.3196 196.278 42.9517 196.283 43.733C196.278 44.4195 196.077 45.0256 195.679 45.5511C195.286 46.072 194.739 46.4792 194.039 46.7727C193.338 47.0663 192.533 47.2131 191.624 47.2131C190.289 47.2131 189.214 46.9337 188.4 46.375C187.585 45.8116 187.1 45.0279 186.944 44.0241L189.451 43.7827C189.564 44.2751 189.806 44.6468 190.175 44.8977C190.544 45.1487 191.025 45.2741 191.617 45.2741C192.228 45.2741 192.718 45.1487 193.087 44.8977C193.461 44.6468 193.648 44.3366 193.648 43.9673C193.648 43.6548 193.527 43.3968 193.286 43.1932C193.049 42.9896 192.68 42.8333 192.178 42.7244L190.317 42.3338C189.271 42.116 188.497 41.7491 187.995 41.233C187.493 40.7121 187.244 40.054 187.249 39.2585C187.244 38.5862 187.426 38.0038 187.796 37.5114C188.17 37.0142 188.688 36.6307 189.351 36.3608C190.019 36.0862 190.788 35.9489 191.659 35.9489C192.938 35.9489 193.944 36.2211 194.678 36.7656C195.417 37.3101 195.873 38.0464 196.049 38.9744ZM203.162 47.2131C202.096 47.2131 201.173 46.9787 200.392 46.5099C199.61 46.0412 199.004 45.3854 198.574 44.5426C198.147 43.6998 197.934 42.715 197.934 41.5881C197.934 40.4612 198.147 39.474 198.574 38.6264C199.004 37.7789 199.61 37.1207 200.392 36.652C201.173 36.1832 202.096 35.9489 203.162 35.9489C204.227 35.9489 205.15 36.1832 205.931 36.652C206.713 37.1207 207.316 37.7789 207.743 38.6264C208.173 39.474 208.389 40.4612 208.389 41.5881C208.389 42.715 208.173 43.6998 207.743 44.5426C207.316 45.3854 206.713 46.0412 205.931 46.5099C205.15 46.9787 204.227 47.2131 203.162 47.2131ZM203.176 45.1534C203.753 45.1534 204.236 44.9948 204.625 44.6776C205.013 44.3556 205.302 43.9247 205.491 43.3849C205.685 42.8452 205.782 42.2438 205.782 41.581C205.782 40.9134 205.685 40.3097 205.491 39.7699C205.302 39.2254 205.013 38.7921 204.625 38.4702C204.236 38.1482 203.753 37.9872 203.176 37.9872C202.584 37.9872 202.092 38.1482 201.699 38.4702C201.31 38.7921 201.019 39.2254 200.825 39.7699C200.636 40.3097 200.541 40.9134 200.541 41.581C200.541 42.2438 200.636 42.8452 200.825 43.3849C201.019 43.9247 201.31 44.3556 201.699 44.6776C202.092 44.9948 202.584 45.1534 203.176 45.1534ZM213.142 40.608V47H210.571V36.0909H213.028V37.9446H213.156C213.407 37.3338 213.807 36.8485 214.357 36.4886C214.911 36.1288 215.595 35.9489 216.409 35.9489C217.162 35.9489 217.818 36.1098 218.376 36.4318C218.94 36.7538 219.375 37.2202 219.683 37.831C219.996 38.4418 220.15 39.1828 220.145 40.054V47H217.574V40.4517C217.574 39.7225 217.384 39.152 217.006 38.7401C216.632 38.3281 216.113 38.1222 215.45 38.1222C215 38.1222 214.6 38.2216 214.25 38.4205C213.904 38.6146 213.632 38.8963 213.433 39.2656C213.239 39.6349 213.142 40.0824 213.142 40.608ZM224.342 47.1562C223.911 47.1562 223.542 47.0047 223.234 46.7017C222.927 46.3987 222.775 46.0294 222.78 45.5938C222.775 45.1676 222.927 44.803 223.234 44.5C223.542 44.197 223.911 44.0455 224.342 44.0455C224.759 44.0455 225.121 44.197 225.429 44.5C225.741 44.803 225.9 45.1676 225.905 45.5938C225.9 45.8826 225.824 46.1454 225.678 46.3821C225.536 46.6188 225.346 46.8082 225.109 46.9503C224.877 47.0876 224.622 47.1562 224.342 47.1562ZM230.143 47.1562C229.712 47.1562 229.343 47.0047 229.035 46.7017C228.727 46.3987 228.576 46.0294 228.581 45.5938C228.576 45.1676 228.727 44.803 229.035 44.5C229.343 44.197 229.712 44.0455 230.143 44.0455C230.56 44.0455 230.922 44.197 231.23 44.5C231.542 44.803 231.701 45.1676 231.706 45.5938C231.701 45.8826 231.625 46.1454 231.478 46.3821C231.336 46.6188 231.147 46.8082 230.91 46.9503C230.678 47.0876 230.422 47.1562 230.143 47.1562ZM235.944 47.1562C235.513 47.1562 235.144 47.0047 234.836 46.7017C234.528 46.3987 234.377 46.0294 234.381 45.5938C234.377 45.1676 234.528 44.803 234.836 44.5C235.144 44.197 235.513 44.0455 235.944 44.0455C236.361 44.0455 236.723 44.197 237.031 44.5C237.343 44.803 237.502 45.1676 237.506 45.5938C237.502 45.8826 237.426 46.1454 237.279 46.3821C237.137 46.6188 236.948 46.8082 236.711 46.9503C236.479 47.0876 236.223 47.1562 235.944 47.1562Z" fill="#D7DCDD"/>
<defs>
<filter id="filter0_d_2158_5217" x="0" y="0" width="384" height="91" filterUnits="userSpaceOnUse" color-interpolation-filters="sRGB">
<feFlood flood-opacity="0" result="BackgroundImageFix"/>
<feColorMatrix in="SourceAlpha" type="matrix" values="0 0 0 0 0 0 0 0 0 0 0 0 0 0 0 0 0 0 127 0" result="hardAlpha"/>
<feOffset dy="6"/>
<feGaussianBlur stdDeviation="8"/>
<feComposite in2="hardAlpha" operator="out"/>
<feColorMatrix type="matrix" values="0 0 0 0 0.0745098 0 0 0 0 0.172549 0 0 0 0 0.290196 0 0 0 0.02 0"/>
<feBlend mode="normal" in2="BackgroundImageFix" result="effect1_dropShadow_2158_5217"/>
<feBlend mode="normal" in="SourceGraphic" in2="effect1_dropShadow_2158_5217" result="shape"/>
</filter>
</defs>
</svg>
